<?xml version="1.0" encoding="utf-8"?>
<!-- Generator: Adobe Illustrator 22.1.0, SVG Export Plug-In . SVG Version: 6.00 Build 0)  -->
<svg version="1.1" id="Calque_1" xmlns="http://www.w3.org/2000/svg" xmlns:xlink="http://www.w3.org/1999/xlink" x="0px" y="0px"
	 viewBox="0 0 120.7 122.7" style="enable-background:new 0 0 120.7 122.7;" xml:space="preserve">
<style type="text/css">
	.st0{fill:url(#SVGID_1_);}
	.st1{fill:url(#SVGID_2_);}
	.st2{fill:url(#SVGID_3_);}
	.st3{fill:url(#SVGID_4_);}
	.st4{fill:#00CA94;}
	.st5{fill:#00A5E9;}
</style>
<linearGradient id="SVGID_1_" gradientUnits="userSpaceOnUse" x1="0" y1="197.35" x2="47.2" y2="197.35" gradientTransform="matrix(1 0 0 1 0 -172)">
	<stop  offset="0" style="stop-color:#00A5E9"/>
	<stop  offset="0.22" style="stop-color:#00ABDC"/>
	<stop  offset="0.62" style="stop-color:#00B9BA"/>
	<stop  offset="1" style="stop-color:#00CA94"/>
</linearGradient>
<path class="st0" d="M26.7,2.5c9.9,0,17.9,8,17.9,17.9v27.8H26.9c-13.4,0-24.3-10.9-24.4-24.3v-6.6c0-8.2,6.6-14.8,14.8-14.8
	L26.7,2.5 M26.7,0h-9.4C7.8,0,0,7.8,0,17.3v6.6c0,14.8,12,26.8,26.9,26.8h20.3V20.4C47.1,9.2,38,0,26.7,0z"/>
<linearGradient id="SVGID_2_" gradientUnits="userSpaceOnUse" x1="0" y1="230.95" x2="60.5" y2="230.95" gradientTransform="matrix(1 0 0 1 0 -172)">
	<stop  offset="0" style="stop-color:#00A5E9"/>
	<stop  offset="0.22" style="stop-color:#00ABDC"/>
	<stop  offset="0.62" style="stop-color:#00B9BA"/>
	<stop  offset="1" style="stop-color:#00CA94"/>
</linearGradient>
<path class="st1" d="M38.3,99.8h-25C6,99.8,0,93.5,0,85.9V18.1c0,15.7,4.7,31.6,37.7,28.8c0.2,0,0.4,0,0.5,0
	C50.5,47,60.5,57.5,60.5,70.3v6.2C60.5,89.3,50.5,99.8,38.3,99.8z"/>
<linearGradient id="SVGID_3_" gradientUnits="userSpaceOnUse" x1="-527.4142" y1="12.0145" x2="-480.721" y2="12.0145" gradientTransform="matrix(-1 -8.552105e-03 8.552105e-03 -1 -410.1596 31.7056)">
	<stop  offset="0" style="stop-color:#00A5E9"/>
	<stop  offset="0.22" style="stop-color:#00ABDC"/>
	<stop  offset="0.62" style="stop-color:#00B9BA"/>
	<stop  offset="1" style="stop-color:#00CA94"/>
</linearGradient>
<path class="st2" d="M113.4,3.1L113.4,3.1c-5.1-4.4-12.7-3.9-17,1.1L73.5,30.4c-4.3,5-3.9,12.6,1.1,17.1l0,0
	c8,3.7,8.5-23.6,24.2-9.8l15.7-17.6C118.8,15.1,118.4,7.5,113.4,3.1z"/>
<linearGradient id="SVGID_4_" gradientUnits="userSpaceOnUse" x1="-531.1012" y1="-39.9678" x2="-484.3718" y2="-39.9678" gradientTransform="matrix(-1 -8.552105e-03 8.552105e-03 -1 -410.1596 31.7056)">
	<stop  offset="0" style="stop-color:#00A5E9"/>
	<stop  offset="0.22" style="stop-color:#00ABDC"/>
	<stop  offset="0.62" style="stop-color:#00B9BA"/>
	<stop  offset="1" style="stop-color:#00CA94"/>
</linearGradient>
<path class="st3" d="M116.7,52.3L116.7,52.3c-3.5,18.9-21.1,4.9-25.5,9.9L76.8,79.6c-4.3,5-3.9,12.6,1.1,17.1l0.1,0.1
	c5,4.4,12.6,3.9,16.9-1.1l0,0l22.9-26.3C122.1,64.3,121.6,56.7,116.7,52.3z"/>
<path class="st4" d="M103.9,85.2l13.9-15.9c4.3-5.2,3.7-12.9-1.4-17.3L91,29.8c-5-4.5-12.7-4-17.1,1l0,0l-0.1,0.1
	c-4.3,5.2-3.7,12.9,1.4,17.2l16.2,14.2C95,65.4,107,76.3,103.9,85.2z"/>
<g>
	<path class="st5" d="M7,109.7c1.5,0,2.6,0.5,3.4,1.5c0.8,1,1.2,2.4,1.2,4.3s-0.4,3.3-1.2,4.3s-2,1.5-3.4,1.5c-0.7,0-1.4-0.1-2-0.4
		s-1.1-0.7-1.5-1.2H3.4L3,121.2H1.8v-16h1.7v3.9c0,0.9,0,1.6-0.1,2.3h0.1C4.3,110.3,5.5,109.7,7,109.7z M6.8,111.2
		c-1.2,0-2,0.3-2.5,1s-0.8,1.8-0.8,3.4s0.3,2.7,0.8,3.4c0.5,0.7,1.4,1,2.5,1c1,0,1.8-0.4,2.3-1.1c0.5-0.8,0.8-1.9,0.8-3.3
		c0-1.5-0.3-2.6-0.8-3.3S7.9,111.2,6.8,111.2z"/>
	<path class="st5" d="M21.6,121.2l-0.3-1.6h-0.1c-0.6,0.7-1.1,1.2-1.7,1.4c-0.6,0.2-1.3,0.4-2.1,0.4c-1.1,0-2-0.3-2.6-0.9
		s-0.9-1.4-0.9-2.5c0-2.3,1.8-3.5,5.4-3.6l1.9-0.1v-0.7c0-0.9-0.2-1.5-0.6-2c-0.4-0.4-1-0.6-1.8-0.6c-0.9,0-2,0.3-3.2,0.9l-0.5-1.3
		c0.6-0.3,1.2-0.5,1.8-0.7s1.3-0.3,2-0.3c1.3,0,2.3,0.3,3,0.9c0.6,0.6,1,1.5,1,2.9v7.7L21.6,121.2L21.6,121.2z M17.7,120
		c1.1,0,1.9-0.3,2.5-0.9s0.9-1.4,0.9-2.4v-1l-1.7,0.1c-1.4,0-2.3,0.3-2.9,0.6c-0.6,0.4-0.9,1-0.9,1.7c0,0.6,0.2,1.1,0.6,1.4
		C16.6,119.8,17.1,120,17.7,120z"/>
	<path class="st5" d="M34,121.2v-7.3c0-0.9-0.2-1.6-0.6-2.1s-1.1-0.7-2-0.7c-1.2,0-2,0.3-2.6,1s-0.8,1.7-0.8,3.1v5.9h-1.7v-11.2h1.4
		l0.3,1.5h0.1c0.3-0.6,0.8-1,1.5-1.3c0.6-0.3,1.3-0.5,2.1-0.5c1.4,0,2.4,0.3,3.1,1c0.7,0.7,1,1.7,1,3.1v7.3H34V121.2z"/>
	<path class="st5" d="M40.9,115.4c0.3-0.4,0.7-1,1.3-1.6l3.6-3.8h2l-4.6,4.8l4.9,6.4H46l-4-5.3l-1.3,1.1v4.2H39v-16h1.7v8.5
		C40.9,114,40.9,114.6,40.9,115.4L40.9,115.4z"/>
	<path class="st5" d="M55,121.4c-1.7,0-3-0.5-3.9-1.5c-1-1-1.4-2.4-1.4-4.2c0-1.8,0.4-3.2,1.3-4.3c0.9-1.1,2.1-1.6,3.6-1.6
		c1.4,0,2.5,0.5,3.3,1.4s1.2,2.1,1.2,3.7v1.1h-7.7c0,1.3,0.4,2.3,1,3s1.5,1,2.7,1s2.4-0.3,3.6-0.8v1.5c-0.6,0.3-1.2,0.4-1.7,0.6
		C56.4,121.3,55.8,121.4,55,121.4z M54.6,111.1c-0.9,0-1.6,0.3-2.2,0.9c-0.5,0.6-0.9,1.4-0.9,2.4h5.9c0-1.1-0.2-1.9-0.7-2.5
		C56.1,111.4,55.4,111.1,54.6,111.1z"/>
	<path class="st4" d="M70.8,117.2c0,1.3-0.5,2.3-1.4,3.1s-2.3,1.1-3.9,1.1c-1.8,0-3.1-0.2-4.1-0.7V119c0.6,0.3,1.3,0.5,2,0.6
		c0.7,0.2,1.4,0.2,2.2,0.2c1.2,0,2-0.2,2.6-0.7c0.6-0.4,0.9-1.1,0.9-1.8c0-0.5-0.1-0.9-0.3-1.3c-0.2-0.3-0.6-0.6-1-0.9
		c-0.5-0.3-1.2-0.6-2.2-1c-1.4-0.5-2.4-1.1-3-1.8c-0.6-0.7-0.9-1.6-0.9-2.7c0-1.2,0.4-2.1,1.3-2.8c0.9-0.7,2-1,3.4-1
		c1.5,0,2.9,0.3,4.1,0.8l-0.5,1.5c-1.2-0.5-2.4-0.8-3.6-0.8c-0.9,0-1.6,0.2-2.2,0.6s-0.8,0.9-0.8,1.7c0,0.5,0.1,0.9,0.3,1.3
		c0.2,0.3,0.5,0.6,1,0.9s1.1,0.6,2.1,0.9c1.6,0.6,2.7,1.2,3.2,1.8C70.5,115.3,70.8,116.1,70.8,117.2z"/>
	<path class="st4" d="M78.1,121.4c-1.6,0-2.9-0.5-3.8-1.5s-1.3-2.4-1.3-4.2c0-1.9,0.5-3.3,1.4-4.4c0.9-1,2.2-1.5,3.9-1.5
		c0.5,0,1.1,0.1,1.6,0.2s1,0.3,1.3,0.4l-0.5,1.4c-0.4-0.2-0.8-0.3-1.2-0.4c-0.4-0.1-0.8-0.1-1.2-0.1c-2.3,0-3.4,1.5-3.4,4.4
		c0,1.4,0.3,2.4,0.8,3.2c0.6,0.7,1.4,1.1,2.5,1.1c0.9,0,1.9-0.2,2.9-0.6v1.5C80.2,121.2,79.2,121.4,78.1,121.4z"/>
	<path class="st4" d="M91.3,121.2v-7.3c0-0.9-0.2-1.6-0.6-2.1s-1.1-0.7-2-0.7c-1.2,0-2,0.3-2.6,1c-0.5,0.6-0.8,1.7-0.8,3.2v5.9h-1.7
		v-16h1.7v4.8c0,0.6,0,1.1-0.1,1.4h0.1c0.3-0.5,0.8-1,1.4-1.3s1.3-0.5,2.1-0.5c1.4,0,2.4,0.3,3.1,1s1,1.7,1,3.1v7.3h-1.6V121.2z"/>
	<path class="st4" d="M106.2,115.5c0,1.8-0.5,3.3-1.4,4.3s-2.2,1.5-3.8,1.5c-1,0-1.9-0.2-2.7-0.7c-0.8-0.5-1.4-1.1-1.8-2
		s-0.6-1.9-0.6-3.1c0-1.8,0.5-3.3,1.4-4.3s2.2-1.5,3.8-1.5c1.6,0,2.8,0.5,3.7,1.6C105.7,112.3,106.2,113.7,106.2,115.5z M97.6,115.5
		c0,1.4,0.3,2.5,0.9,3.3s1.4,1.1,2.5,1.1s2-0.4,2.5-1.1c0.6-0.7,0.9-1.8,0.9-3.3c0-1.4-0.3-2.5-0.9-3.3c-0.6-0.7-1.4-1.1-2.6-1.1
		c-1.1,0-2,0.4-2.5,1.1S97.6,114.1,97.6,115.5z M98.1,106.9c0-0.4,0.1-0.6,0.3-0.8c0.2-0.2,0.4-0.2,0.7-0.2c0.3,0,0.5,0.1,0.7,0.2
		c0.2,0.2,0.3,0.4,0.3,0.8c0,0.3-0.1,0.6-0.3,0.8c-0.2,0.2-0.4,0.3-0.7,0.3c-0.3,0-0.5-0.1-0.7-0.3
		C98.2,107.5,98.1,107.2,98.1,106.9z M102,106.9c0-0.4,0.1-0.6,0.3-0.8c0.2-0.2,0.4-0.2,0.7-0.2c0.3,0,0.5,0.1,0.7,0.2
		c0.2,0.2,0.3,0.4,0.3,0.8c0,0.3-0.1,0.6-0.3,0.8c-0.2,0.2-0.4,0.3-0.7,0.3c-0.3,0-0.5-0.1-0.7-0.3C102.1,107.5,102,107.2,102,106.9
		z"/>
	<path class="st4" d="M116.8,121.2v-7.3c0-0.9-0.2-1.6-0.6-2.1s-1.1-0.7-2-0.7c-1.2,0-2,0.3-2.6,1s-0.8,1.7-0.8,3.1v5.9h-1.7v-11.2
		h1.4l0.3,1.5h0.1c0.3-0.6,0.8-1,1.5-1.3c0.6-0.3,1.3-0.5,2.1-0.5c1.4,0,2.4,0.3,3.1,1s1,1.7,1,3.1v7.3h-1.8V121.2z"/>
</g>
</svg>
